<?xml version="1.0" encoding="UTF-8" standalone="no"?>
<!DOCTYPE svg PUBLIC "-//W3C//DTD SVG 1.1//EN"
 "http://www.w3.org/Graphics/SVG/1.1/DTD/svg11.dtd">
<!-- Generated by graphviz version 12.1.1 (20240910.0053)
 -->
<!-- Title: INFRA Pages: 1 -->
<svg width="1452pt" height="404pt"
 viewBox="0.00 0.00 1451.63 404.00" xmlns="http://www.w3.org/2000/svg" xmlns:xlink="http://www.w3.org/1999/xlink">
<g id="graph0" class="graph" transform="scale(1 1) rotate(0) translate(4 400)">
<title>INFRA</title>
<polygon fill="white" stroke="none" points="-4,4 -4,-400 1447.63,-400 1447.63,4 -4,4"/>
<!-- WebsiteData -->
<g id="node1" class="node">
<title>WebsiteData</title>
<path fill="#fff5cd" stroke="black" stroke-width="2" d="M631.38,-65.45C631.38,-69.07 601.64,-72 565.03,-72 528.42,-72 498.68,-69.07 498.68,-65.45 498.68,-65.45 498.68,-6.55 498.68,-6.55 498.68,-2.93 528.42,0 565.03,0 601.64,0 631.38,-2.93 631.38,-6.55 631.38,-6.55 631.38,-65.45 631.38,-65.45"/>
<path fill="none" stroke="black" stroke-width="2" d="M631.38,-65.45C631.38,-61.84 601.64,-58.91 565.03,-58.91 528.42,-58.91 498.68,-61.84 498.68,-65.45"/>
<text text-anchor="middle" x="565.03" y="-40.2" font-family="Arial" font-size="14.00">WebsiteData</text>
<text text-anchor="middle" x="565.03" y="-23.4" font-family="Arial" font-size="14.00">(AWS::S3::Bucket)</text>
</g>
<!-- InmateDataKnowledgeBase12 -->
<g id="node2" class="node">
<title>InmateDataKnowledgeBase12</title>
<path fill="#e6e6e6" stroke="black" stroke-width="2" d="M340.69,-180C340.69,-180 139.37,-180 139.37,-180 133.37,-180 127.37,-174 127.37,-168 127.37,-168 127.37,-120 127.37,-120 127.37,-114 133.37,-108 139.37,-108 139.37,-108 340.69,-108 340.69,-108 346.69,-108 352.69,-114 352.69,-120 352.69,-120 352.69,-168 352.69,-168 352.69,-174 346.69,-180 340.69,-180"/>
<text text-anchor="middle" x="240.03" y="-148.2" font-family="Arial" font-size="14.00">InmateDataKnowledgeBase12</text>
<text text-anchor="middle" x="240.03" y="-131.4" font-family="Arial" font-size="14.00">(AWS::Bedrock::KnowledgeBase)</text>
</g>
<!-- InmateDataKnowledgeBase12&#45;&gt;WebsiteData -->
<g id="edge1" class="edge">
<title>InmateDataKnowledgeBase12&#45;&gt;WebsiteData</title>
<path fill="none" stroke="black" d="M348.7,-107.56C394.27,-92.69 446.2,-75.76 487.76,-62.2"/>
<polygon fill="black" stroke="black" points="488.78,-65.55 497.2,-59.12 486.61,-58.9 488.78,-65.55"/>
</g>
<!-- KnowledgeBaseDataSource -->
<g id="node3" class="node">
<title>KnowledgeBaseDataSource</title>
<path fill="#e6e6e6" stroke="black" stroke-width="2" d="M186.06,-288C186.06,-288 12,-288 12,-288 6,-288 0,-282 0,-276 0,-276 0,-228 0,-228 0,-222 6,-216 12,-216 12,-216 186.06,-216 186.06,-216 192.06,-216 198.06,-222 198.06,-228 198.06,-228 198.06,-276 198.06,-276 198.06,-282 192.06,-288 186.06,-288"/>
<text text-anchor="middle" x="99.03" y="-256.2" font-family="Arial" font-size="14.00">KnowledgeBaseDataSource</text>
<text text-anchor="middle" x="99.03" y="-239.4" font-family="Arial" font-size="14.00">(AWS::Bedrock::DataSource)</text>
</g>
<!-- KnowledgeBaseDataSource&#45;&gt;WebsiteData -->
<g id="edge3" class="edge">
<title>KnowledgeBaseDataSource&#45;&gt;WebsiteData</title>
<path fill="none" stroke="black" d="M93.01,-215.7C89.66,-183.26 90.67,-136.06 118.03,-108 167.95,-56.8 372.81,-42.51 487.08,-38.53"/>
<polygon fill="black" stroke="black" points="487.13,-42.03 497.01,-38.21 486.91,-35.04 487.13,-42.03"/>
</g>
<!-- KnowledgeBaseDataSource&#45;&gt;InmateDataKnowledgeBase12 -->
<g id="edge2" class="edge">
<title>KnowledgeBaseDataSource&#45;&gt;InmateDataKnowledgeBase12</title>
<path fill="none" stroke="black" d="M145.98,-215.7C158.23,-206.5 171.55,-196.48 184.21,-186.97"/>
<polygon fill="black" stroke="black" points="186.19,-189.86 192.08,-181.05 181.98,-184.26 186.19,-189.86"/>
</g>
<!-- Agent&#45;PDF -->
<g id="node4" class="node">
<title>Agent&#45;PDF</title>
<path fill="#e6e6e6" stroke="black" stroke-width="2" d="M364.39,-288C364.39,-288 227.67,-288 227.67,-288 221.67,-288 215.67,-282 215.67,-276 215.67,-276 215.67,-228 215.67,-228 215.67,-222 221.67,-216 227.67,-216 227.67,-216 364.39,-216 364.39,-216 370.39,-216 376.39,-222 376.39,-228 376.39,-228 376.39,-276 376.39,-276 376.39,-282 370.39,-288 364.39,-288"/>
<text text-anchor="middle" x="296.03" y="-256.2" font-family="Arial" font-size="14.00">Agent&#45;PDF</text>
<text text-anchor="middle" x="296.03" y="-239.4" font-family="Arial" font-size="14.00">(AWS::Bedrock::Agent)</text>
</g>
<!-- Agent&#45;PDF&#45;&gt;InmateDataKnowledgeBase12 -->
<g id="edge4" class="edge">
<title>Agent&#45;PDF&#45;&gt;InmateDataKnowledgeBase12</title>
<path fill="none" stroke="black" d="M277.38,-215.7C273.09,-207.57 268.46,-198.8 263.97,-190.31"/>
<polygon fill="black" stroke="black" points="267.07,-188.69 259.3,-181.48 260.88,-191.96 267.07,-188.69"/>
</g>
<!-- PDFAgentAlias -->
<g id="node5" class="node">
<title>PDFAgentAlias</title>
<path fill="#e6e6e6" stroke="black" stroke-width="2" d="M379.56,-396C379.56,-396 212.5,-396 212.5,-396 206.5,-396 200.5,-390 200.5,-384 200.5,-384 200.5,-336 200.5,-336 200.5,-330 206.5,-324 212.5,-324 212.5,-324 379.56,-324 379.56,-324 385.56,-324 391.56,-330 391.56,-336 391.56,-336 391.56,-384 391.56,-384 391.56,-390 385.56,-396 379.56,-396"/>
<text text-anchor="middle" x="296.03" y="-364.2" font-family="Arial" font-size="14.00">PDFAgentAlias</text>
<text text-anchor="middle" x="296.03" y="-347.4" font-family="Arial" font-size="14.00">(AWS::Bedrock::AgentAlias)</text>
</g>
<!-- PDFAgentAlias&#45;&gt;Agent&#45;PDF -->
<g id="edge5" class="edge">
<title>PDFAgentAlias&#45;&gt;Agent&#45;PDF</title>
<path fill="none" stroke="black" d="M296.03,-323.7C296.03,-315.93 296.03,-307.57 296.03,-299.43"/>
<polygon fill="black" stroke="black" points="299.53,-299.66 296.03,-289.66 292.53,-299.66 299.53,-299.66"/>
</g>
<!-- SupervisorAgentWithCodeInterpreter -->
<g id="node6" class="node">
<title>SupervisorAgentWithCodeInterpreter</title>
<path fill="#e6e6e6" stroke="black" stroke-width="2" d="M913.81,-396C913.81,-396 692.25,-396 692.25,-396 686.25,-396 680.25,-390 680.25,-384 680.25,-384 680.25,-336 680.25,-336 680.25,-330 686.25,-324 692.25,-324 692.25,-324 913.81,-324 913.81,-324 919.81,-324 925.81,-330 925.81,-336 925.81,-336 925.81,-384 925.81,-384 925.81,-390 919.81,-396 913.81,-396"/>
<text text-anchor="middle" x="803.03" y="-364.2" font-family="Arial" font-size="14.00">SupervisorAgentWithCodeInterpreter</text>
<text text-anchor="middle" x="803.03" y="-347.4" font-family="Arial" font-size="14.00">(AWS::Bedrock::Agent)</text>
</g>
<!-- InmateSummaryScrapper -->
<g id="node7" class="node">
<title>InmateSummaryScrapper</title>
<path fill="#b7e0ff" stroke="black" stroke-width="2" d="M535.56,-180C535.56,-180 382.5,-180 382.5,-180 376.5,-180 370.5,-174 370.5,-168 370.5,-168 370.5,-120 370.5,-120 370.5,-114 376.5,-108 382.5,-108 382.5,-108 535.56,-108 535.56,-108 541.56,-108 547.56,-114 547.56,-120 547.56,-120 547.56,-168 547.56,-168 547.56,-174 541.56,-180 535.56,-180"/>
<text text-anchor="middle" x="459.03" y="-148.2" font-family="Arial" font-size="14.00">InmateSummaryScrapper</text>
<text text-anchor="middle" x="459.03" y="-131.4" font-family="Arial" font-size="14.00">(AWS::Lambda::Function)</text>
</g>
<!-- InmateSummaryScrapper&#45;&gt;WebsiteData -->
<g id="edge6" class="edge">
<title>InmateSummaryScrapper&#45;&gt;WebsiteData</title>
<path fill="none" stroke="black" d="M494.33,-107.7C503.18,-98.85 512.77,-89.26 521.95,-80.08"/>
<polygon fill="black" stroke="black" points="524.22,-82.76 528.82,-73.21 519.27,-77.81 524.22,-82.76"/>
</g>
<!-- CondemnedInmateListScrapper -->
<g id="node8" class="node">
<title>CondemnedInmateListScrapper</title>
<path fill="#b7e0ff" stroke="black" stroke-width="2" d="M766.86,-180C766.86,-180 577.2,-180 577.2,-180 571.2,-180 565.2,-174 565.2,-168 565.2,-168 565.2,-120 565.2,-120 565.2,-114 571.2,-108 577.2,-108 577.2,-108 766.86,-108 766.86,-108 772.86,-108 778.86,-114 778.86,-120 778.86,-120 778.86,-168 778.86,-168 778.86,-174 772.86,-180 766.86,-180"/>
<text text-anchor="middle" x="672.03" y="-148.2" font-family="Arial" font-size="14.00">CondemnedInmateListScrapper</text>
<text text-anchor="middle" x="672.03" y="-131.4" font-family="Arial" font-size="14.00">(AWS::Lambda::Function)</text>
</g>
<!-- CondemnedInmateListScrapper&#45;&gt;WebsiteData -->
<g id="edge7" class="edge">
<title>CondemnedInmateListScrapper&#45;&gt;WebsiteData</title>
<path fill="none" stroke="black" d="M636.4,-107.7C627.47,-98.85 617.78,-89.26 608.51,-80.08"/>
<polygon fill="black" stroke="black" points="611.15,-77.76 601.58,-73.21 606.22,-82.73 611.15,-77.76"/>
</g>
<!-- ScoreJailRosterScraper -->
<g id="node9" class="node">
<title>ScoreJailRosterScraper</title>
<path fill="#b7e0ff" stroke="black" stroke-width="2" d="M961.56,-180C961.56,-180 808.5,-180 808.5,-180 802.5,-180 796.5,-174 796.5,-168 796.5,-168 796.5,-120 796.5,-120 796.5,-114 802.5,-108 808.5,-108 808.5,-108 961.56,-108 961.56,-108 967.56,-108 973.56,-114 973.56,-120 973.56,-120 973.56,-168 973.56,-168 973.56,-174 967.56,-180 961.56,-180"/>
<text text-anchor="middle" x="885.03" y="-148.2" font-family="Arial" font-size="14.00">ScoreJailRosterScraper</text>
<text text-anchor="middle" x="885.03" y="-131.4" font-family="Arial" font-size="14.00">(AWS::Lambda::Function)</text>
</g>
<!-- ScoreJailRosterScraper&#45;&gt;WebsiteData -->
<g id="edge8" class="edge">
<title>ScoreJailRosterScraper&#45;&gt;WebsiteData</title>
<path fill="none" stroke="black" d="M796.01,-110.73C793.32,-109.8 790.66,-108.89 788.03,-108 739.9,-91.66 685.55,-74.33 642.56,-60.89"/>
<polygon fill="black" stroke="black" points="643.63,-57.56 633.04,-57.92 641.55,-64.24 643.63,-57.56"/>
</g>
<!-- BedrockAIAgent -->
<g id="node10" class="node">
<title>BedrockAIAgent</title>
<path fill="#b7e0ff" stroke="black" stroke-width="2" d="M1156.56,-180C1156.56,-180 1003.5,-180 1003.5,-180 997.5,-180 991.5,-174 991.5,-168 991.5,-168 991.5,-120 991.5,-120 991.5,-114 997.5,-108 1003.5,-108 1003.5,-108 1156.56,-108 1156.56,-108 1162.56,-108 1168.56,-114 1168.56,-120 1168.56,-120 1168.56,-168 1168.56,-168 1168.56,-174 1162.56,-180 1156.56,-180"/>
<text text-anchor="middle" x="1080.03" y="-148.2" font-family="Arial" font-size="14.00">BedrockAIAgent</text>
<text text-anchor="middle" x="1080.03" y="-131.4" font-family="Arial" font-size="14.00">(AWS::Lambda::Function)</text>
</g>
<!-- BedrockAIAgent&#45;&gt;WebsiteData -->
<g id="edge9" class="edge">
<title>BedrockAIAgent&#45;&gt;WebsiteData</title>
<path fill="none" stroke="black" d="M991.16,-110.24C988.43,-109.45 985.71,-108.71 983.03,-108 866.31,-77.29 727.63,-56.79 643.01,-46.02"/>
<polygon fill="black" stroke="black" points="643.55,-42.57 633.19,-44.79 642.67,-49.51 643.55,-42.57"/>
</g>
<!-- pc&#45;web&#45;socket&#45;handler -->
<g id="node11" class="node">
<title>pc&#45;web&#45;socket&#45;handler</title>
<path fill="#b7e0ff" stroke="black" stroke-width="2" d="M1156.56,-288C1156.56,-288 1003.5,-288 1003.5,-288 997.5,-288 991.5,-282 991.5,-276 991.5,-276 991.5,-228 991.5,-228 991.5,-222 997.5,-216 1003.5,-216 1003.5,-216 1156.56,-216 1156.56,-216 1162.56,-216 1168.56,-222 1168.56,-228 1168.56,-228 1168.56,-276 1168.56,-276 1168.56,-282 1162.56,-288 1156.56,-288"/>
<text text-anchor="middle" x="1080.03" y="-256.2" font-family="Arial" font-size="14.00">pc&#45;web&#45;socket&#45;handler</text>
<text text-anchor="middle" x="1080.03" y="-239.4" font-family="Arial" font-size="14.00">(AWS::Lambda::Function)</text>
</g>
<!-- pc&#45;web&#45;socket&#45;handler&#45;&gt;BedrockAIAgent -->
<g id="edge10" class="edge">
<title>pc&#45;web&#45;socket&#45;handler&#45;&gt;BedrockAIAgent</title>
<path fill="none" stroke="black" d="M1080.03,-215.7C1080.03,-207.93 1080.03,-199.57 1080.03,-191.43"/>
<polygon fill="black" stroke="black" points="1083.53,-191.66 1080.03,-181.66 1076.53,-191.66 1083.53,-191.66"/>
</g>
<!-- cla&#45;web&#45;socket&#45;api -->
<g id="node12" class="node">
<title>cla&#45;web&#45;socket&#45;api</title>
<path fill="#e78f81" stroke="black" stroke-width="2" d="M1431.63,-288C1431.63,-288 1198.43,-288 1198.43,-288 1192.43,-288 1186.43,-282 1186.43,-276 1186.43,-276 1186.43,-228 1186.43,-228 1186.43,-222 1192.43,-216 1198.43,-216 1198.43,-216 1431.63,-216 1431.63,-216 1437.63,-216 1443.63,-222 1443.63,-228 1443.63,-228 1443.63,-276 1443.63,-276 1443.63,-282 1437.63,-288 1431.63,-288"/>
<text text-anchor="middle" x="1315.03" y="-256.2" font-family="Arial" font-size="14.00">cla&#45;web&#45;socket&#45;api</text>
<text text-anchor="middle" x="1315.03" y="-239.4" font-family="Arial" font-size="14.00">(AWS::ApiGatewayV2::WebSocketApi)</text>
</g>
<!-- cla&#45;web&#45;socket&#45;stage -->
<g id="node13" class="node">
<title>cla&#45;web&#45;socket&#45;stage</title>
<path fill="#e78f81" stroke="black" stroke-width="2" d="M1404.01,-396C1404.01,-396 1226.05,-396 1226.05,-396 1220.05,-396 1214.05,-390 1214.05,-384 1214.05,-384 1214.05,-336 1214.05,-336 1214.05,-330 1220.05,-324 1226.05,-324 1226.05,-324 1404.01,-324 1404.01,-324 1410.01,-324 1416.01,-330 1416.01,-336 1416.01,-336 1416.01,-384 1416.01,-384 1416.01,-390 1410.01,-396 1404.01,-396"/>
<text text-anchor="middle" x="1315.03" y="-364.2" font-family="Arial" font-size="14.00">cla&#45;web&#45;socket&#45;stage</text>
<text text-anchor="middle" x="1315.03" y="-347.4" font-family="Arial" font-size="14.00">(AWS::ApiGatewayV2::Stage)</text>
</g>
<!-- cla&#45;web&#45;socket&#45;stage&#45;&gt;cla&#45;web&#45;socket&#45;api -->
<g id="edge11" class="edge">
<title>cla&#45;web&#45;socket&#45;stage&#45;&gt;cla&#45;web&#45;socket&#45;api</title>
<path fill="none" stroke="black" d="M1315.03,-323.7C1315.03,-315.93 1315.03,-307.57 1315.03,-299.43"/>
<polygon fill="black" stroke="black" points="1318.53,-299.66 1315.03,-289.66 1311.53,-299.66 1318.53,-299.66"/>
</g>
</g>
</svg>
